<?xml version="1.0" standalone="no"?>
<!DOCTYPE svg PUBLIC "-//W3C//DTD SVG 20010904//EN"
 "http://www.w3.org/TR/2001/REC-SVG-20010904/DTD/svg10.dtd">
<svg version="1.0" xmlns="http://www.w3.org/2000/svg"
 width="260.000000pt" height="260.000000pt" viewBox="0 0 260.000000 260.000000"
 preserveAspectRatio="xMidYMid meet">
<metadata>
Created by potrace 1.11, written by Peter Selinger 2001-2013
</metadata>
<g transform="translate(0.000000,260.000000) scale(0.100000,-0.100000)"
fill="#000000" stroke="none">
<path d="M278 2118 c-49 -26 -85 -69 -98 -118 -7 -26 -9 -266 -8 -713 l3 -674
27 -39 c15 -22 42 -48 60 -59 32 -20 57 -20 1029 -23 703 -2 1005 1 1025 8 16
6 31 11 34 11 14 0 55 48 71 84 17 38 19 80 19 705 0 448 -4 678 -11 705 -13
49 -51 92 -104 116 -38 18 -87 19 -1025 18 -970 0 -986 -1 -1022 -21z m247
-117 c28 0 138 0 245 0 292 -2 722 -3 745 -1 27 1 151 3 200 3 22 -1 76 -1
120 -1 360 0 444 -4 456 -23 5 -8 8 -102 8 -209 -1 -107 -1 -222 -1 -255 1
-33 1 -116 1 -185 0 -69 1 -141 1 -160 1 -19 2 -73 1 -120 0 -47 0 -103 1
-125 0 -22 0 -65 0 -95 0 -30 -1 -75 -1 -100 -1 -61 -18 -100 -45 -101 -23 -1
-516 -9 -556 -9 -14 0 -90 2 -170 5 -80 2 -161 4 -180 4 -172 -3 -935 0 -968
3 -24 3 -49 11 -55 17 -9 9 -12 174 -13 659 -1 543 1 651 13 670 8 13 17 22
19 19 3 -3 17 -2 32 2 15 4 43 6 62 4 19 -2 58 -3 85 -2z"/>
<path d="M1018 1713 c-41 -31 -62 -83 -58 -143 1 -19 2 -48 1 -65 0 -16 -2
-100 -3 -185 -2 -85 0 -165 4 -177 4 -13 3 -23 -2 -23 -5 0 -7 -6 -5 -12 3 -7
7 -46 9 -86 4 -65 7 -75 35 -101 67 -62 129 -60 231 9 14 10 54 32 90 51 36
18 67 35 70 38 7 8 52 34 120 69 67 34 199 122 222 148 28 32 36 64 24 105
-14 48 -40 79 -91 109 -22 13 -67 39 -100 58 -74 43 -272 142 -285 142 -6 0
-10 5 -10 10 0 6 -7 10 -15 10 -8 0 -15 4 -15 8 0 17 -83 54 -133 59 -46 4
-56 2 -89 -24z m154 -144 c14 -11 30 -19 34 -19 4 0 30 -15 58 -34 61 -40 269
-164 309 -184 26 -13 27 -16 14 -29 -8 -8 -26 -16 -40 -16 -14 -1 -23 -5 -21
-9 3 -4 -6 -12 -18 -19 -13 -6 -35 -23 -50 -36 -14 -14 -30 -25 -35 -25 -14
-1 -78 -32 -81 -40 -2 -5 -10 -8 -18 -8 -9 0 -12 -4 -9 -10 3 -5 1 -10 -4 -10
-21 0 -26 -2 -54 -22 -15 -11 -35 -17 -43 -14 -8 3 -12 1 -9 -4 3 -5 -11 -18
-32 -27 -21 -10 -39 -21 -41 -25 -2 -5 -10 -8 -18 -8 -11 0 -13 48 -13 286 l0
285 22 -7 c12 -4 34 -15 49 -25z"/>
</g>
</svg>
